<svg width="50" height="50" viewBox="0 0 50 50" fill="none" xmlns="http://www.w3.org/2000/svg">
<path fill-rule="evenodd" clip-rule="evenodd" d="M14.5833 12.5H16.6667C18.048 12.5 19.3728 13.0487 20.3495 14.0255C21.3263 15.0022 21.875 16.327 21.875 17.7083V34.375C21.875 35.7563 21.3263 37.0811 20.3495 38.0578C19.3728 39.0346 18.048 39.5833 16.6667 39.5833H14.5833C13.202 39.5833 11.8772 39.0346 10.9005 38.0578C9.92373 37.0811 9.375 35.7563 9.375 34.375V17.7083C9.375 16.327 9.92373 15.0022 10.9005 14.0255C11.8772 13.0487 13.202 12.5 14.5833 12.5ZM17.7083 17.7083V34.375C17.7083 34.6513 17.5986 34.9162 17.4032 35.1116C17.2079 35.3069 16.9429 35.4167 16.6667 35.4167H14.5833C14.3071 35.4167 14.0421 35.3069 13.8468 35.1116C13.6514 34.9162 13.5417 34.6513 13.5417 34.375V17.7083C13.5417 17.4321 13.6514 17.1671 13.8468 16.9718C14.0421 16.7764 14.3071 16.6667 14.5833 16.6667H16.6667C16.9429 16.6667 17.2079 16.7764 17.4032 16.9718C17.5986 17.1671 17.7083 17.4321 17.7083 17.7083ZM35.4167 12.5H33.3333C31.952 12.5 30.6272 13.0487 29.6505 14.0255C28.6737 15.0022 28.125 16.327 28.125 17.7083V34.375C28.125 35.7563 28.6737 37.0811 29.6505 38.0578C30.6272 39.0346 31.952 39.5833 33.3333 39.5833H35.4167C36.798 39.5833 38.1228 39.0346 39.0995 38.0578C40.0763 37.0811 40.625 35.7563 40.625 34.375V17.7083C40.625 16.327 40.0763 15.0022 39.0995 14.0255C38.1228 13.0487 36.798 12.5 35.4167 12.5ZM32.2917 17.7083V34.375C32.2917 34.6513 32.4014 34.9162 32.5968 35.1116C32.7921 35.3069 33.0571 35.4167 33.3333 35.4167H35.4167C35.6929 35.4167 35.9579 35.3069 36.1532 35.1116C36.3486 34.9162 36.4583 34.6513 36.4583 34.375V17.7083C36.4583 17.4321 36.3486 17.1671 36.1532 16.9718C35.9579 16.7764 35.6929 16.6667 35.4167 16.6667H33.3333C33.0571 16.6667 32.7921 16.7764 32.5968 16.9718C32.4014 17.1671 32.2917 17.4321 32.2917 17.7083Z" fill="#EFEFEF"/>
<path d="M18.75 27.0833H31.25V31.25H18.75V27.0833ZM18.75 20.8333H31.25V25H18.75V20.8333Z" fill="#EFEFEF"/>
<path fill-rule="evenodd" clip-rule="evenodd" d="M41.4104 22.9229C41.0848 22.917 40.759 22.9149 40.4333 22.9167H39.5833C39.0308 22.9167 38.5009 22.6972 38.1102 22.3065C37.7195 21.9158 37.5 21.3859 37.5 20.8333C37.5 20.2808 37.7195 19.7509 38.1102 19.3602C38.5009 18.9695 39.0308 18.75 39.5833 18.75H40.5375C41.225 18.75 41.9292 18.75 42.5167 18.8271C43.1958 18.9187 44.0208 19.1438 44.7146 19.8271L44.725 19.8396L44.7563 19.8687C45.4396 20.5625 45.6646 21.3875 45.7563 22.0646C45.8333 22.6542 45.8333 23.3604 45.8333 24.0479V28.0375C45.8333 28.725 45.8333 29.4292 45.7542 30.0188C45.6646 30.6958 45.4396 31.5188 44.7542 32.2146L44.7438 32.225L44.7146 32.2563C44.0208 32.9396 43.1958 33.1646 42.5188 33.2563C41.8598 33.3213 41.1975 33.3471 40.5354 33.3333H39.5833C39.0308 33.3333 38.5009 33.1138 38.1102 32.7231C37.7195 32.3324 37.5 31.8025 37.5 31.25C37.5 30.6975 37.7195 30.1676 38.1102 29.7769C38.5009 29.3862 39.0308 29.1667 39.5833 29.1667H40.4333C40.839 29.167 41.2445 29.1615 41.65 29.15L41.6604 28.9083C41.6667 28.6417 41.6667 28.3292 41.6667 27.9333V24.15C41.6671 23.7437 41.6615 23.3374 41.65 22.9313L41.4104 22.9229ZM8.58958 22.9229C8.85834 22.9167 9.17083 22.9167 9.56667 22.9167H10.4167C10.9692 22.9167 11.4991 22.6972 11.8898 22.3065C12.2805 21.9158 12.5 21.3859 12.5 20.8333C12.5 20.2808 12.2805 19.7509 11.8898 19.3602C11.4991 18.9695 10.9692 18.75 10.4167 18.75H9.4625C8.775 18.75 8.07084 18.75 7.48125 18.8271C6.80417 18.9187 5.98125 19.1438 5.28542 19.8271L5.275 19.8396L5.24375 19.8687C4.56042 20.5625 4.33542 21.3875 4.24375 22.0646C4.17868 22.7236 4.15294 23.3859 4.16667 24.0479V28.0375C4.16667 28.725 4.16667 29.4292 4.24375 30.0188C4.33542 30.6958 4.56042 31.5188 5.24375 32.2146L5.25625 32.225L5.28542 32.2563C5.97917 32.9396 6.80417 33.1646 7.48125 33.2563C8.07084 33.3333 8.77709 33.3333 9.46459 33.3333H10.4167C10.9692 33.3333 11.4991 33.1138 11.8898 32.7231C12.2805 32.3324 12.5 31.8025 12.5 31.25C12.5 30.6975 12.2805 30.1676 11.8898 29.7769C11.4991 29.3862 10.9692 29.1667 10.4167 29.1667H9.56667C9.16036 29.1671 8.75407 29.1615 8.34792 29.15C8.33711 28.7438 8.33225 28.3375 8.33333 27.9312V24.15C8.33225 23.7437 8.33711 23.3374 8.34792 22.9313L8.58958 22.9229Z" fill="#EFEFEF"/>
</svg>
